<?xml version="1.0" encoding="UTF-8"?><svg id="Layer_2" xmlns="http://www.w3.org/2000/svg" viewBox="0 0 537.32 291"><defs><style>.cls-1{fill:#7c7e64;}.cls-2{fill:none;stroke:#7c7e64;stroke-miterlimit:10;stroke-width:2px;}</style></defs><g id="Layer_1-2"><path class="cls-1" d="m261.17,132.44c-8.95-10.87-19.63-19.47-31.82-25.6-12.57-6.32-26.05-9.59-40.05-9.73h-.96c-13.55,0-26.98,3.78-38.4,11.61-17.84,12.22-29.43,30.75-33.24,51.65v14.33c.03-3.64.31-7.24.85-10.73,5.19-36.99,34.93-65.43,70.79-65.43.31,0,.61,0,.96.04,18.75.26,36.37,8.23,49.65,22.48,9.39,10.07,15.85,22.48,18.94,36.02.92,4.02,4.2,6.89,8.04,6.89h0c6.37,0,10.3-7.38,7.19-13.36-3.34-6.44-7.35-12.52-11.95-18.15Z"/><path class="cls-1" d="m124.13,289.63c-3.89,0-7.03-3.15-7.03-7.03v-62.97h.03c-.03-.24-.03-.51-.03-.75V0l-34.66,15.57.55,1.26,3.88-1.75c2.23-1.01,4.76.63,4.76,3.08v264.43c0,3.89-3.15,7.03-7.03,7.03h-1.95v1.37h43.4v-1.37h-1.91Z"/><path class="cls-1" d="m34.43,7.57v276.01c0,3.25,2.63,5.88,5.88,5.88h3.08v1.36H0v-1.36h3.08c3.25,0,5.88-2.63,5.88-5.88V7.57c0-3.34-2.7-6.04-6.04-6.04H0V.18h43.39v1.36h-2.92c-3.34,0-6.04,2.7-6.04,6.04Z"/><path class="cls-1" d="m537.32,289.27v1.36h-43.39v-1.36h3.14c3.21,0,5.82-2.6,5.82-5.82V114.72c0-2.69-2.77-4.48-5.22-3.38l-3.41,1.54-.56-1.24,34.66-15.6v187.42c0,3.21,2.6,5.82,5.82,5.82h3.15Z"/><path class="cls-1" d="m458.06,289.26c-4.31,0-7.81-3.49-7.81-7.81v-124.1c0-9.73-2.25-19.05-6.66-27.69-4.2-8.2-10.35-15.5-17.76-21.07-10.35-7.79-22.71-11.99-35.72-12.16h-.82c-60.58.51-83.22,57.61-101.45,103.5-1.57,3.96-3.11,7.82-4.64,11.58-4.23,10.38-8.4,19.94-12.94,27.59h-.03c-3.38,6.18-7.48,12.02-12.16,17.31-8.81,9.97-19.33,17.86-31.35,23.49-12.29,5.7-25.41,8.71-39.03,8.91h-.48c-.89,0-1.74-.03-2.63-.1-.68,0-1.33-.07-2.01-.14-.79-.03-1.57-.1-2.32-.2-1.13-.1-2.25-.27-3.35-.44-1.3-.17-2.6-.41-3.86-.72-1.02-.2-2.01-.44-2.97-.68-1.57-.41-3.11-.85-4.64-1.37-10.38-3.48-19.91-9.32-27.86-17.28-13.18-13.15-20.62-30.63-21-49.21-.85.24-1.71.51-2.56.72-6.21,1.6-12.98,2.12-19.02.92,3.96,13.59,10.86,26.22,20.39,37.02.41.44.79.89,1.23,1.33,8.64,9.49,18.92,17.01,30.56,22.47,12.57,5.87,26.05,8.91,40.05,9.05h.96c13.66-.27,26.81-3.31,39.13-9.05,5.29-2.49,10.31-5.4,15.02-8.78.72-.44,1.43-.99,2.12-1.5,5.29-3.96,10.21-8.47,14.65-13.52,4.75-5.4,8.88-11.3,12.33-17.55,3.24-5.43,6.28-11.78,9.29-18.75,2.8-6.45,5.57-13.42,8.4-20.59,9.08-22.88,19.36-48.8,34.83-68.7,17.72-22.84,39.37-33.94,66.18-33.94,7.44.14,14.51,2.59,20.45,7.07,8.74,6.56,13.9,16.56,14.2,27.45v1.91c-.34,12.04-6.61,22.96-17.09,29.38-5.8,3.55-12.59,5.14-19.39,5.14h-25.08c-12.98.17-25.34,4.37-35.72,12.16-7.41,5.57-13.56,12.84-17.76,21.07-4.4,8.64-6.62,17.96-6.62,27.69s2.22,19.09,6.62,27.69c4.2,8.23,10.35,15.5,17.76,21.07,10.38,7.82,22.74,12.02,35.72,12.19h.85c13.56,0,26.43-4.27,37.25-12.4,7.51-5.67,13.76-13.08,18.06-21.44,2.46-4.85,4.27-9.94,5.4-15.16v49h34.42v-1.37h-1.14Zm-33.28-60.58c-.03,9.66-2.25,18.92-6.62,27.49-4.17,8.16-10.28,15.43-17.65,20.97-10.59,7.96-23.15,12.12-36.43,12.12h-.82c-7.44-.17-14.51-2.63-20.49-7.1-8.71-6.56-13.9-16.56-14.17-27.42v-50.09c.27-10.89,5.46-20.9,14.17-27.45,5.98-4.47,13.04-6.93,20.49-7.07h26.05c8.02,0,15.67-2.53,22.09-7.38,6.59-4.92,11.2-11.75,13.39-19.46v85.4Z"/><path class="cls-1" d="m502.92,69.29c-1.31-8.6,6-15.9,14.6-14.58,5.36.82,9.74,5.2,10.57,10.56,1.32,8.61-5.99,15.93-14.61,14.6-5.36-.83-9.74-5.22-10.56-10.58Z"/><path class="cls-1" d="m115.73,158.57c-.55,3.24-.82,6.59-.85,9.97v-9.97h.85Z"/><circle class="cls-2" cx="272.48" cy="184.96" r="6.55"/></g></svg>